<svg viewBox="-1.616 0 167.984 40" xmlns="http://www.w3.org/2000/svg">
  <defs>
    <linearGradient id="logoGradient" x1="0%" y1="0%" x2="100%" y2="0%">
      <stop offset="0%" style="stop-color:#f2efe6"/>
      <stop offset="100%" style="stop-color:#43c9c3"/>
    </linearGradient>
  </defs>
  <!-- Cinzel SemiBold (600) glyph outlines; no runtime font dependency. -->
  <path fill="url(#logoGradient)" d="M9.968 9.896 18.816 29.832H14.672L8.652 14.376ZM3.948 27.956Q3.724 28.516 3.864 28.908Q4.004 29.3 4.34 29.51Q4.676 29.72 5.012 29.72H5.264V30H-0.616V29.72Q-0.616 29.72 -0.49 29.72Q-0.364 29.72 -0.364 29.72Q0.28 29.72 0.966 29.314Q1.652 28.908 2.1 27.956ZM9.968 9.896 10.108 12.836 3.136 29.916H1.232L8.456 13.312Q8.512 13.2 8.694 12.766Q8.876 12.332 9.114 11.772Q9.352 11.212 9.52 10.694Q9.688 10.176 9.716 9.896ZM13.244 23V24.064H4.816V23ZM13.944 27.956H17.976Q18.424 28.908 19.11 29.314Q19.796 29.72 20.44 29.72Q20.44 29.72 20.552 29.72Q20.664 29.72 20.664 29.72V30H12.628V29.72H12.88Q13.412 29.72 13.832 29.258Q14.252 28.796 13.944 27.956ZM29.708 10.4V22.72Q29.708 24.708 30.394 26.192Q31.08 27.676 32.34 28.488Q33.6 29.3 35.28 29.3Q37.072 29.3 38.36 28.53Q39.648 27.76 40.362 26.374Q41.076 24.988 41.076 23.084V10.4H42.84V22.972Q42.84 25.212 41.888 26.878Q40.936 28.544 39.158 29.468Q37.38 30.392 34.944 30.392Q32.2 30.392 30.254 29.482Q28.308 28.572 27.3 26.906Q26.292 25.24 26.292 23V10.4ZM26.376 10.4V12.08H26.292Q26.292 11.464 25.858 11.072Q25.424 10.68 24.808 10.68Q24.808 10.68 24.584 10.68Q24.36 10.68 24.36 10.68V10.4ZM31.64 10.4V10.68Q31.64 10.68 31.416 10.68Q31.192 10.68 31.192 10.68Q30.576 10.68 30.142 11.072Q29.708 11.464 29.708 12.08H29.652V10.4ZM41.16 10.4V12.08H41.076Q41.076 11.464 40.642 11.072Q40.208 10.68 39.592 10.68Q39.592 10.68 39.368 10.68Q39.144 10.68 39.144 10.68V10.4ZM44.772 10.4V10.68Q44.772 10.68 44.548 10.68Q44.324 10.68 44.324 10.68Q43.708 10.68 43.274 11.072Q42.84 11.464 42.84 12.08H42.784V10.4ZM60.872 10.484V30H57.456V10.484ZM67.816 10.372V11.436H50.484V10.372ZM67.816 11.352V14.292L67.536 14.264V13.9Q67.536 12.808 66.864 12.136Q66.192 11.464 65.1 11.436V11.352ZM67.816 9.868V10.68L64.4 10.372Q65.016 10.372 65.702 10.288Q66.388 10.204 66.976 10.092Q67.564 9.98 67.816 9.868ZM57.54 27.956V30H55.3V29.72Q55.3 29.72 55.482 29.72Q55.664 29.72 55.664 29.72Q56.392 29.72 56.91 29.202Q57.428 28.684 57.456 27.956ZM60.788 27.956H60.872Q60.9 28.684 61.418 29.202Q61.936 29.72 62.664 29.72Q62.664 29.72 62.846 29.72Q63.028 29.72 63.028 29.72V30H60.788ZM53.2 11.352V11.436Q52.108 11.464 51.436 12.136Q50.764 12.808 50.764 13.9V14.264L50.484 14.292V11.352ZM50.484 9.868Q50.764 9.98 51.338 10.092Q51.912 10.204 52.612 10.288Q53.312 10.372 53.9 10.372L50.484 10.68ZM92.624 10.4V30H89.208V10.4ZM79.352 10.4V30H75.936V10.4ZM89.46 19.724V20.788H79.072V19.724ZM76.02 27.956V30H73.78V29.72Q73.78 29.72 73.962 29.72Q74.144 29.72 74.144 29.72Q74.872 29.72 75.39 29.202Q75.908 28.684 75.936 27.956ZM76.02 12.444H75.936Q75.908 11.716 75.39 11.198Q74.872 10.68 74.144 10.68Q74.144 10.68 73.962 10.68Q73.78 10.68 73.78 10.68V10.4H76.02ZM79.268 27.956H79.352Q79.38 28.684 79.898 29.202Q80.416 29.72 81.144 29.72Q81.144 29.72 81.312 29.72Q81.48 29.72 81.508 29.72V30H79.268ZM79.268 12.444V10.4H81.508V10.68Q81.48 10.68 81.312 10.68Q81.144 10.68 81.144 10.68Q80.416 10.68 79.898 11.198Q79.38 11.716 79.352 12.444ZM89.292 27.956V30H87.052V29.72Q87.08 29.72 87.248 29.72Q87.416 29.72 87.416 29.72Q88.144 29.72 88.676 29.202Q89.208 28.684 89.208 27.956ZM89.292 12.444H89.208Q89.208 11.716 88.676 11.198Q88.144 10.68 87.416 10.68Q87.416 10.68 87.248 10.68Q87.08 10.68 87.052 10.68V10.4H89.292ZM92.54 27.956H92.624Q92.652 28.684 93.17 29.202Q93.688 29.72 94.416 29.72Q94.416 29.72 94.598 29.72Q94.78 29.72 94.78 29.72V30H92.54ZM92.54 12.444V10.4H94.78V10.68Q94.78 10.68 94.598 10.68Q94.416 10.68 94.416 10.68Q93.688 10.68 93.17 11.198Q92.652 11.716 92.624 12.444ZM106.904 10.4H110.628Q111.888 10.4 113.022 10.708Q114.156 11.016 115.024 11.66Q115.892 12.304 116.382 13.298Q116.872 14.292 116.872 15.664Q116.872 16.896 116.34 18.1Q115.808 19.304 114.772 20.102Q113.736 20.9 112.224 21.012Q112.98 21.264 113.666 21.95Q114.352 22.636 114.8 23.308Q114.828 23.336 115.15 23.826Q115.472 24.316 115.948 25.016Q116.424 25.716 116.942 26.416Q117.46 27.116 117.852 27.592Q118.468 28.32 118.986 28.782Q119.504 29.244 120.092 29.482Q120.68 29.72 121.436 29.72V30H119.112Q117.656 30 116.522 29.692Q115.388 29.384 114.548 28.768Q113.708 28.152 113.092 27.228Q112.924 26.976 112.616 26.458Q112.308 25.94 111.944 25.296Q111.58 24.652 111.23 24.05Q110.88 23.448 110.642 22.972Q110.404 22.496 110.32 22.3Q109.872 21.488 109.34 20.984Q108.808 20.48 108.192 20.424V20.144Q108.248 20.144 108.556 20.158Q108.864 20.172 109.256 20.144Q110.012 20.116 110.782 19.864Q111.552 19.612 112.168 18.926Q112.784 18.24 113.064 17.008Q113.12 16.756 113.176 16.364Q113.232 15.972 113.204 15.552Q113.12 13.592 112.196 12.584Q111.272 11.576 109.844 11.52Q109.312 11.492 108.724 11.506Q108.136 11.52 107.702 11.52Q107.268 11.52 107.184 11.52Q107.184 11.492 107.114 11.212Q107.044 10.932 106.974 10.666Q106.904 10.4 106.904 10.4ZM107.268 10.4V30H103.852V10.4ZM103.936 27.956V30H101.696V29.72Q101.724 29.72 101.878 29.72Q102.032 29.72 102.06 29.72Q102.788 29.72 103.306 29.202Q103.824 28.684 103.852 27.956ZM103.936 12.444H103.852Q103.824 11.716 103.306 11.198Q102.788 10.68 102.06 10.68Q102.032 10.68 101.878 10.68Q101.724 10.68 101.696 10.68V10.4H103.936ZM107.184 27.956H107.268Q107.268 28.684 107.8 29.202Q108.332 29.72 109.06 29.72Q109.088 29.72 109.242 29.72Q109.396 29.72 109.396 29.72V30H107.184ZM131.18 10.4V30H127.764V10.4ZM127.848 27.956V30H125.608V29.72Q125.608 29.72 125.79 29.72Q125.972 29.72 125.972 29.72Q126.7 29.72 127.218 29.202Q127.736 28.684 127.764 27.956ZM127.848 12.444H127.764Q127.736 11.716 127.218 11.198Q126.7 10.68 125.972 10.68Q125.972 10.68 125.79 10.68Q125.608 10.68 125.608 10.68V10.4H127.848ZM131.096 27.956H131.18Q131.208 28.684 131.726 29.202Q132.244 29.72 132.972 29.72Q132.972 29.72 133.14 29.72Q133.308 29.72 133.336 29.72V30H131.096ZM131.096 12.444V10.4H133.336V10.68Q133.308 10.68 133.14 10.68Q132.972 10.68 132.972 10.68Q132.244 10.68 131.726 11.198Q131.208 11.716 131.18 12.444ZM160.3 10.008 160.524 12.668 152.628 27.48Q152.628 27.48 152.376 27.97Q152.124 28.46 151.872 29.16Q151.62 29.86 151.592 30.504H151.312L150.444 28.292ZM141.904 27.956V30H138.796V29.72Q138.824 29.72 139.034 29.72Q139.244 29.72 139.244 29.72Q140 29.72 140.588 29.258Q141.176 28.796 141.288 27.956ZM142.996 28.404Q142.996 28.432 142.996 28.46Q142.996 28.488 142.996 28.544Q142.996 28.992 143.318 29.37Q143.64 29.748 144.088 29.748H144.508V30H142.8V28.404ZM143.528 10.008H143.808L144.648 12.444L142.828 30H141.036ZM143.808 10.008 152.6 25.856 151.312 30.504 143.136 15.468ZM160.552 10.008 163.128 30H159.404L157.948 15.776L160.3 10.008ZM162.26 27.956H162.876Q163.016 28.796 163.59 29.258Q164.164 29.72 164.92 29.72Q164.92 29.72 165.13 29.72Q165.34 29.72 165.368 29.72V30H162.26ZM159.236 28.404H159.432V30H157.724V29.748H158.144Q158.62 29.748 158.928 29.37Q159.236 28.992 159.236 28.544Q159.236 28.488 159.236 28.46Q159.236 28.432 159.236 28.404Z"/>
</svg>
